# xmcd
#
# Track frame offsets:
# 150
# 16499
# 99681
#
# Disc length: 1432 seconds
#
# Revision: 0
# Processed by: cddbd v1.5.1PL0 Copyright (c) Steve Scherf et al.
# Submitted via: Audion 3.0.2 (http://www.panic.com/audion/)
#
DISCID=1d059603
DTITLE=Frank Black and the Catholics - I Gotta Move
DYEAR=1900
DGENRE=
TTITLE0=I Gotta Move
TTITLE1=interview
TTITLE2=interview 2
EXTD=
EXTT0=
EXTT1=
EXTT2=
PLAYORDER=
